<?xml version="1.0" encoding="utf-8"?>
<!-- Generator: Adobe Illustrator 25.2.3, SVG Export Plug-In . SVG Version: 6.00 Build 0)  -->
<svg version="1.1" id="Ebene_1" xmlns="http://www.w3.org/2000/svg" xmlns:xlink="http://www.w3.org/1999/xlink" x="0px" y="0px"
	 viewBox="0 0 1024 1024" style="enable-background:new 0 0 1024 1024;" xml:space="preserve">
<style type="text/css">
	.st0{display:none;fill:#F7931E;stroke:#39B54A;stroke-width:31;stroke-miterlimit:10;}
	.st1{fill:#39B54A;stroke:#39B54A;stroke-width:31;stroke-miterlimit:10;}
	.st2{fill:none;stroke:#39B54A;stroke-width:60;stroke-linecap:round;stroke-linejoin:round;stroke-miterlimit:10;}
</style>
<path id="Fill-177" class="st0" d="M467.7,680.5c2.1,8.5,2.1,17.1,2.1,25.7c0,47-17.1,89.8-51.3,121.8l-68.4,68.4
	c-32.1,32.1-77,51.3-121.9,51.3c-96.2,0-173.2-77-173.2-173.2c0-47,17.1-89.8,51.3-121.9l68.4-68.4c32.1-32.1,76.9-51.3,124-51.3
	c8.5,0,17.1,2.1,25.6,2.1l53.4-53.4c-25.6-8.6-51.3-12.8-79.1-12.8c-64.1,0-124,25.6-168.9,70.5l-68.4,68.4
	C16.6,652.7-9,712.6-9,776.7C-9,907.1,97.9,1014,228.3,1014c64.1,0,124-25.7,168.9-70.5l68.4-68.4c44.9-44.9,70.6-104.8,70.6-168.9
	c0-27.8-4.3-53.4-12.8-79.1L467.7,680.5"/>
<path id="Fill-178" class="st1" d="M768.6,17c-64.1,0-124,25.6-168.9,70.5L531.3,156c-44.9,44.9-70.6,104.8-70.6,168.9
	c0,27.8,4.3,53.4,12.8,79.1l53.5-53.5c-2.1-8.5-2.1-17.1-2.1-25.6c0-47,17.1-89.8,51.3-121.8l68.4-68.4c32.1-32.1,77-51.3,124-51.3
	c96.2,0,173.2,77,173.2,173.2c0,47-17.1,89.8-51.3,121.9L822,446.7C790,478.8,745,498,700.2,498c-8.5,0-17.1-2.1-25.7-2.1
	l-53.4,51.3c25.7,8.5,51.3,12.8,79.1,12.8c64.1,0,124-25.7,168.9-70.5l68.4-68.4c44.9-44.9,70.5-104.7,70.5-168.9
	C1005.9,123.9,899,17,768.6,17"/>
<path id="Fill-179" class="st1" d="M406.6,657.2c-8.5,0-17.1-4.3-23.5-10.7c-12.8-12.8-12.8-34.2,0-49.2l342.1-342
	c12.8-12.8,34.2-12.8,49.2,0c12.8,12.8,12.8,34.2,0,49.2l-342.1,342C423.7,655,415.1,657.2,406.6,657.2"/>
<path id="XMLID_42_" class="st2" d="M138.6,721.5c96-95.6,223.7-123.2,285.4-61.8c61.7,61.4,33.9,188.7-62,284.3l-0.6,0.3
	c-65.9,62-117.6,43.3-117.6,43.3s51-48.1,12.4-86.5c-19.4,19.4-46.1,40.8-78.8,56.7c-42.2,20.5-95.4,25.6-144.5,17.4
	c74.4-74.2,19.8-153.4,100.4-247c1.9-2.2,3.8-4.4,5.6-6.5L138.6,721.5z"/>
</svg>
